<svg viewBox="0 0 37 37" fill="none" xmlns="http://www.w3.org/2000/svg">
<circle cx="18.2903" cy="18.2903" r="18.2903" fill="#0E820E"/>
<path d="M9.03824 14.2311V14.2376C9.03814 14.3175 9.06759 14.3945 9.12074 14.4533C9.17388 14.5121 9.24682 14.5484 9.32504 14.5549V27.5406H10.2747V27.5212H10.5997L10.5934 25.5744C10.5934 24.6854 11.2434 22.9852 12.174 22.9981C13.1363 22.9852 13.7928 24.6983 13.7928 25.5874L13.7737 27.5212H16.3231L16.3294 23.6276C16.3294 22.7386 17.5786 21.0643 18.2096 21.0513C18.8597 21.0578 20.1344 22.758 20.128 23.6406V27.5212H22.6965L22.7028 25.5744C22.7028 24.6854 23.3529 22.9852 24.2771 22.9981C25.2395 22.9852 25.8896 24.6983 25.8896 25.5874L25.8704 27.5212H26.2082V27.5406H27.1706V14.5543C27.2476 14.5462 27.3189 14.5094 27.3707 14.4509C27.4225 14.3924 27.4511 14.3164 27.451 14.2376V14.2311C27.4509 14.1669 27.4317 14.1042 27.396 14.0513C27.3603 13.9984 27.3097 13.9577 27.2509 13.9345C27.3994 13.6386 27.4829 13.3051 27.4829 12.9527C27.4829 11.7262 25.6155 9.98709 25.2586 10.0001C24.8698 9.99358 23.0215 11.7327 23.0215 12.9527C23.0215 13.3077 23.1063 13.6438 23.2567 13.941C23.2018 13.9662 23.1552 14.0069 23.1225 14.0584C23.0899 14.1098 23.0725 14.1698 23.0725 14.2311V14.2376C23.0725 14.3998 23.193 14.5341 23.3466 14.5536V19.1175C23.3466 19.468 23.0661 19.7535 22.7156 19.7535H22.0655C21.715 19.7535 21.4345 19.468 21.4345 19.1175V18.4491H21.7851C21.938 18.4491 22.0591 18.3258 22.0591 18.1701V18.0792C22.0591 17.9235 21.938 17.8002 21.7851 17.8002H20.6908L20.7526 17.7937C21.46 17.7937 22.04 17.1967 22.04 16.4504L22.0591 15.0942C22.0591 13.9086 21.128 13.3732 20.1669 12.8216C19.5085 12.4433 18.8355 12.0565 18.439 11.4472C18.3179 11.259 18.0757 11.259 17.961 11.4472C17.5742 12.0611 16.9094 12.4485 16.2587 12.8281C15.3537 13.3557 14.4754 13.8683 14.4047 14.9514V16.4504C14.4047 17.1967 14.9846 17.7937 15.6921 17.7937L15.7539 17.8002H14.6851C14.5321 17.8002 14.411 17.9235 14.411 18.0792V18.1701C14.411 18.3258 14.5321 18.4491 14.6851 18.4491H15.0611V19.1175C15.0611 19.468 14.7807 19.76 14.4302 19.76H13.7928C13.4423 19.76 13.1618 19.4744 13.1618 19.124V14.5504C13.2344 14.5387 13.3004 14.5005 13.3473 14.443C13.3942 14.3854 13.4189 14.3124 13.4168 14.2376V14.2311C13.4166 14.1689 13.3987 14.1082 13.365 14.0563C13.3314 14.0044 13.2836 13.9636 13.2275 13.9391C13.3773 13.6419 13.4614 13.307 13.4614 12.9527C13.4614 11.7262 11.594 9.98709 11.2371 10.0001C10.8483 9.99358 9 11.7327 9 12.9527C9 13.3057 9.08413 13.6406 9.23263 13.9365C9.17518 13.9604 9.12603 14.0012 9.09142 14.0537C9.0568 14.1061 9.03829 14.1679 9.03824 14.2311ZM11.8617 19.1046H10.5806L10.587 17.5861C10.587 17.2291 11.014 16.5088 11.2243 16.5088C11.441 16.5088 11.868 17.2356 11.868 17.5925L11.8617 19.1046ZM25.8832 19.1046H24.6021L24.6085 17.5861C24.6085 17.2291 25.0355 16.5088 25.2458 16.5088C25.4625 16.5088 25.8896 17.2356 25.8896 17.5925L25.8832 19.1046Z" fill="white"/>
</svg>
