<svg
  width="37"
  height="48"
  viewBox="0 0 37 48"
  fill="none"
  xmlns="http://www.w3.org/2000/svg"
>
  <path
    d="M26.5882 1.93231C29.3241 3.30987 31.8009 5.65459 34.0904 9.02168C35.5388 11.457 36.3601 14.2137 36.4807 17.0446C36.6271 19.9845 35.9215 23.0852 34.3856 26.3419L34.2488 26.5819L19.7941 47.322C19.6521 47.5309 19.4613 47.7019 19.2381 47.8201C19.0149 47.9382 18.7662 48 18.5137 48C18.2612 48 18.0125 47.9382 17.7893 47.8201C17.5661 47.7019 17.3753 47.5309 17.2333 47.322L3.17459 27.1627C2.08867 25.4567 1.29992 23.579 0.841868 21.6093C-0.0869019 17.467 0.841869 11.7552 4.12496 7.27214C7.33126 2.89468 11.8047 0.756349 16.3262 0.165968C19.7773 -0.287617 23.0652 0.156369 26.5906 1.93231H26.5882ZM18.5749 6.30497C12.1407 6.30497 6.96407 11.4888 6.96407 17.8342C6.96407 24.1772 12.1407 29.3634 18.5749 29.3634C25.0091 29.3634 30.1857 24.1796 30.1857 17.8342C30.1857 11.4912 25.0091 6.30497 18.5749 6.30497ZM18.5749 12.4968C21.5532 12.4968 23.9507 14.8967 23.9507 17.8342C23.9482 18.5376 23.8072 19.2337 23.5356 19.8826C23.2641 20.5316 22.8674 21.1207 22.3682 21.6163C21.869 22.1119 21.2771 22.5044 20.6263 22.7712C19.9754 23.0381 19.2783 23.1741 18.5749 23.1716C15.599 23.1716 13.1991 20.7717 13.1991 17.8342C13.1991 14.8967 15.599 12.4968 18.5749 12.4968Z"
    fill="white"
  />
</svg>
