<svg
  width="50"
  height="37"
  viewBox="0 0 50 37"
  fill="none"
  xmlns="http://www.w3.org/2000/svg"
>
  <path
    d="M9.4767 34.272C7.42333 32.2187 5.79451 29.781 4.68324 27.0982C3.57197 24.4153 3 21.5399 3 18.636C3 15.7321 3.57197 12.8567 4.68324 10.1738C5.79451 7.49101 7.42333 5.05334 9.4767 3M40.7487 3C42.8021 5.05334 44.4309 7.49101 45.5422 10.1738C46.6534 12.8567 47.2254 15.7321 47.2254 18.636C47.2254 21.5399 46.6534 24.4153 45.5422 27.0982C44.4309 29.781 42.8021 32.2187 40.7487 34.272M16.4249 27.3213C14.1219 25.0176 12.8281 21.8935 12.8281 18.636C12.8281 15.3785 14.1219 12.2544 16.4249 9.9507M33.8005 9.9507C36.1035 12.2544 37.3973 15.3785 37.3973 18.636C37.3973 21.8935 36.1035 25.0176 33.8005 27.3213M27.5696 18.636C27.5696 19.2876 27.3108 19.9126 26.85 20.3733C26.3893 20.8341 25.7643 21.0929 25.1127 21.0929C24.4611 21.0929 23.8361 20.8341 23.3754 20.3733C22.9146 19.9126 22.6558 19.2876 22.6558 18.636C22.6558 17.9844 22.9146 17.3594 23.3754 16.8987C23.8361 16.4379 24.4611 16.1791 25.1127 16.1791C25.7643 16.1791 26.3893 16.4379 26.85 16.8987C27.3108 17.3594 27.5696 17.9844 27.5696 18.636Z"
    stroke="white"
    stroke-width="4.91389"
    stroke-linecap="round"
    stroke-linejoin="round"
  />
</svg>
