<svg
  width="47"
  height="47"
  viewBox="0 0 47 47"
  fill="none"
  xmlns="http://www.w3.org/2000/svg"
>
  <g clip-path="url(#clip0_17_1296)">
    <path
      d="M8.03271 5.80566C7.79313 5.80566 7.57601 5.8431 7.38135 5.91797C7.18669 5.99284 7.01449 6.10514 6.86475 6.25488C6.71501 6.43457 6.59521 6.62175 6.50537 6.81641C6.41553 7.01107 6.37061 7.21321 6.37061 7.42285V32.1299C6.37061 32.5791 6.53532 32.9684 6.86475 33.2979C7.19417 33.6273 7.5835 33.792 8.03271 33.792C8.99105 33.792 10.0841 33.8519 11.312 33.9717C12.5399 34.1214 13.8127 34.391 15.1304 34.7803C16.4481 35.1696 17.7658 35.7087 19.0835 36.3975C20.4012 37.1162 21.6141 38.0596 22.7222 39.2275V13.3975C22.7222 13.2477 22.6997 13.098 22.6548 12.9482C22.6099 12.7985 22.5575 12.6637 22.4976 12.5439C21.5692 11.0765 20.4761 9.90853 19.2183 9.04004C17.9604 8.1416 16.6652 7.4528 15.3325 6.97363C13.9998 6.49446 12.6896 6.18001 11.4019 6.03027C10.1141 5.88054 8.99105 5.80566 8.03271 5.80566ZM41.5894 32.1299V7.42285C41.5894 7.21321 41.5444 7.01107 41.4546 6.81641C41.3647 6.62175 41.245 6.43457 41.0952 6.25488C40.9455 6.10514 40.7733 5.99284 40.5786 5.91797C40.384 5.8431 40.1668 5.80566 39.9272 5.80566C38.9689 5.80566 37.8459 5.88054 36.5581 6.03027C35.2703 6.18001 33.9601 6.49446 32.6274 6.97363C31.2948 7.4528 29.9995 8.1416 28.7417 9.04004C27.4839 9.90853 26.3908 11.0765 25.4624 12.5439C25.4025 12.6637 25.3501 12.7985 25.3052 12.9482C25.2603 13.098 25.2378 13.2477 25.2378 13.3975V39.2275C26.3459 38.0596 27.5588 37.1162 28.8765 36.3975C30.1942 35.7087 31.5119 35.1696 32.8296 34.7803C34.1473 34.391 35.4201 34.1214 36.6479 33.9717C37.8758 33.8519 38.9689 33.792 39.9272 33.792C40.3765 33.792 40.7658 33.6273 41.0952 33.2979C41.4246 32.9684 41.5894 32.5791 41.5894 32.1299ZM45.3179 11.5107H44.1499V32.1299C44.1499 33.2979 43.7381 34.2861 42.9146 35.0947C42.091 35.9033 41.0952 36.3076 39.9272 36.3076C39.1187 36.3376 38.2052 36.3975 37.187 36.4873C36.1388 36.6071 35.0607 36.8167 33.9526 37.1162C32.8446 37.4157 31.7365 37.835 30.6284 38.374C29.5203 38.943 28.4871 39.6768 27.5288 40.5752C29.1759 40.1559 30.8231 39.9014 32.4702 39.8115C34.1174 39.7217 35.7046 39.7142 37.2319 39.7891C38.7593 39.8639 40.1818 40.0212 41.4995 40.2607C42.8172 40.4704 43.9702 40.68 44.9585 40.8896C45.1981 40.9495 45.4451 40.9495 45.6997 40.8896C45.9543 40.8298 46.1714 40.7249 46.3511 40.5752C46.5607 40.4255 46.7179 40.2383 46.8228 40.0137C46.9276 39.7891 46.98 39.557 46.98 39.3174V13.1279C46.98 12.6787 46.8228 12.2969 46.5083 11.9824C46.1938 11.668 45.797 11.5107 45.3179 11.5107ZM3.81006 32.1299V11.5107H2.64209C2.16292 11.5107 1.76611 11.668 1.45166 11.9824C1.13721 12.2969 0.97998 12.6787 0.97998 13.1279V39.3174C0.97998 39.557 1.03239 39.7891 1.13721 40.0137C1.24202 40.2383 1.39925 40.4255 1.60889 40.5752C1.78857 40.7249 2.0057 40.8298 2.26025 40.8896C2.51481 40.9495 2.76188 40.9495 3.00146 40.8896C3.98975 40.68 5.14274 40.4704 6.46045 40.2607C7.77816 40.0212 9.20068 39.8639 10.728 39.7891C12.2554 39.7142 13.8426 39.7217 15.4897 39.8115C17.1369 39.9014 18.784 40.1559 20.4312 40.5752C19.4728 39.6768 18.4396 38.943 17.3315 38.374C16.2235 37.835 15.1154 37.4157 14.0073 37.1162C12.8993 36.8167 11.8211 36.6071 10.7729 36.4873C9.75472 36.3975 8.84131 36.3376 8.03271 36.3076C6.86475 36.3076 5.86898 35.9033 5.04541 35.0947C4.22184 34.2861 3.81006 33.2979 3.81006 32.1299Z"
      fill="white"
    />
  </g>
  <defs>
    <clipPath id="clip0_17_1296">
      <rect
        width="46"
        height="46"
        fill="white"
        transform="matrix(1 0 0 -1 0.97998 46.3701)"
      />
    </clipPath>
  </defs>
</svg>
